<?xml version="1.0" standalone="no"?>
<!DOCTYPE svg PUBLIC "-//W3C//DTD SVG 20010904//EN"
 "http://www.w3.org/TR/2001/REC-SVG-20010904/DTD/svg10.dtd">
<svg version="1.0" xmlns="http://www.w3.org/2000/svg"
 width="592.000000pt" height="448.000000pt" viewBox="0 0 592.000000 448.000000"
 preserveAspectRatio="xMidYMid meet">
<metadata>
Created by potrace 1.16, written by Peter Selinger 2001-2019
</metadata>
<g transform="translate(0.000000,448.000000) scale(0.100000,-0.100000)"
fill="#000000" stroke="none">
<path d="M2367 4355 c-11 -7 -25 -11 -33 -8 -8 3 -14 0 -14 -6 0 -6 11 -11 25
-11 22 0 25 -4 25 -39 l0 -40 -55 -6 c-30 -4 -58 -12 -61 -17 -4 -6 6 -8 25
-5 29 5 31 3 26 -19 -3 -13 -8 -36 -11 -51 -3 -15 -15 -43 -27 -63 -17 -27
-23 -31 -25 -17 -2 9 -8 17 -13 17 -6 0 -8 -4 -4 -9 10 -17 -18 -24 -30 -8 -7
10 -20 17 -29 17 -9 0 -16 5 -16 11 0 5 -4 8 -9 5 -5 -4 -11 -3 -13 1 -5 12
-66 53 -78 53 -5 0 -10 4 -10 8 0 5 -19 17 -42 28 -24 10 -58 29 -76 41 -37
24 -102 29 -102 7 0 -7 14 -25 30 -41 36 -33 65 -106 75 -186 4 -31 12 -57 17
-57 15 0 1 77 -28 162 -13 39 -24 75 -24 80 0 11 91 -40 108 -61 6 -8 18 -16
25 -17 22 -3 85 -44 91 -59 3 -8 12 -12 21 -9 14 6 13 8 -2 21 -16 13 -16 13
5 3 12 -6 20 -15 17 -20 -3 -4 11 -18 30 -30 19 -12 39 -29 44 -37 4 -9 14
-13 20 -9 6 4 8 13 5 19 -4 7 -3 8 2 4 5 -5 9 -14 9 -20 0 -7 10 -16 22 -22
12 -5 27 -20 34 -32 8 -14 19 -21 28 -19 19 6 63 -29 81 -63 9 -18 14 -20 20
-11 6 10 16 7 42 -15 18 -15 36 -33 41 -41 4 -7 13 -11 20 -9 6 3 30 -12 53
-33 22 -20 54 -44 70 -53 16 -9 41 -39 57 -69 15 -30 27 -48 27 -41 0 7 -5 22
-11 34 -9 16 -9 22 0 25 6 2 8 9 4 15 -3 7 -2 8 3 4 5 -5 9 -12 9 -15 1 -20
27 -51 39 -46 8 3 21 -7 32 -24 10 -17 23 -28 31 -25 7 3 13 0 13 -6 0 -7 13
-24 28 -40 16 -15 37 -49 47 -76 11 -26 20 -44 22 -38 5 15 -36 119 -52 133
-8 7 -15 23 -15 35 0 17 -16 34 -55 62 -30 22 -52 43 -48 48 5 4 1 6 -8 2 -10
-3 -34 10 -64 34 -26 21 -51 39 -57 39 -5 0 -6 5 -2 12 5 7 2 9 -8 5 -10 -3
-29 7 -50 27 -19 19 -44 37 -56 40 -12 4 -22 12 -22 17 0 6 -4 7 -10 4 -5 -3
-10 -2 -10 4 0 5 -13 18 -30 28 -32 18 -39 33 -17 33 22 0 44 31 62 85 17 47
16 50 -2 65 -23 19 -64 104 -98 205 -40 117 -37 114 -68 90z"/>
<path d="M1937 3827 c-13 -163 -74 -341 -169 -493 l-38 -61 -52 5 c-29 2 -49
1 -45 -4 14 -15 256 -71 260 -61 2 6 12 1 23 -11 19 -21 20 -21 21 -2 1 13 -5
20 -15 20 -15 0 -15 2 -2 11 12 8 10 9 -7 4 -13 -3 -23 -4 -23 -2 0 2 20 44
44 93 24 49 47 100 50 114 4 14 -11 -11 -33 -55 -21 -44 -54 -97 -73 -117
l-33 -37 -47 12 c-47 11 -57 23 -39 43 5 5 36 63 69 129 70 139 109 262 122
390 12 111 12 105 1 105 -4 0 -11 -37 -14 -83z"/>
<path d="M2246 3881 c-9 -14 5 -42 18 -38 6 2 23 -2 38 -9 20 -11 29 -25 37
-64 14 -63 14 -60 -3 -60 -8 0 -29 15 -47 33 -20 20 -30 25 -26 14 4 -10 7
-27 7 -37 0 -13 5 -17 19 -13 33 9 59 -14 66 -58 9 -52 -4 -68 -40 -49 -15 8
-29 26 -32 42 -7 35 -23 26 -23 -13 0 -18 4 -28 10 -24 12 7 78 -29 98 -53 10
-13 12 2 12 82 0 62 4 95 10 91 6 -4 10 5 10 21 0 23 -39 74 -57 74 -3 0 -25
16 -49 35 -23 19 -45 31 -48 26z"/>
<path d="M3656 3691 c-4 -5 -2 -11 3 -13 6 -2 2 -27 -8 -58 -16 -50 -21 -56
-52 -61 l-34 -6 33 -2 c43 -1 43 -32 1 -72 l-32 -29 -56 32 c-143 82 -171 92
-171 58 0 -23 28 -40 65 -40 15 0 37 -11 53 -27 15 -15 34 -26 43 -25 9 2 28
-11 43 -28 14 -17 29 -29 34 -27 4 3 25 -8 47 -23 22 -16 54 -35 70 -43 17 -8
36 -22 44 -31 8 -9 29 -23 48 -31 18 -8 36 -21 39 -29 3 -8 11 -13 18 -10 12
5 86 -67 86 -85 0 -6 7 -8 15 -5 8 4 12 10 9 15 -3 5 -1 9 5 9 6 0 9 -13 7
-30 -2 -16 1 -27 6 -24 12 8 49 -26 42 -37 -3 -5 1 -9 9 -9 23 0 200 -177 194
-194 -4 -10 -1 -13 8 -10 15 6 125 -82 125 -99 0 -5 -13 -25 -30 -44 -16 -18
-30 -44 -30 -56 0 -16 6 -11 19 20 11 23 29 47 41 53 19 10 26 8 46 -11 14
-13 22 -29 19 -37 -2 -7 0 -10 5 -7 5 3 26 -6 45 -21 l35 -26 -40 -29 c-22
-16 -40 -34 -40 -40 0 -6 16 3 35 20 42 37 51 38 81 10 l22 -21 -53 -51 c-29
-29 -55 -64 -59 -79 -10 -42 2 -34 23 15 19 43 71 97 95 97 8 0 25 -9 40 -21
21 -17 24 -24 15 -35 -10 -12 -9 -13 4 -8 17 6 77 -33 77 -51 0 -6 16 -19 35
-29 19 -11 35 -23 35 -27 0 -4 24 -30 53 -58 43 -42 49 -53 37 -62 -12 -8 -11
-9 6 -7 11 2 37 -10 57 -26 39 -31 45 -42 25 -49 -7 -2 -4 -3 8 -1 14 3 37
-11 68 -40 50 -48 54 -56 29 -56 -31 0 -100 -40 -141 -81 -51 -52 -87 -119
-102 -191 -6 -32 -14 -58 -18 -58 -10 1 -29 29 -132 194 -51 82 -127 203 -169
268 -42 65 -98 154 -126 197 -27 44 -90 143 -140 220 -49 77 -112 178 -140
223 -111 182 -225 351 -233 344 -2 -2 2 -15 9 -28 14 -26 20 -74 28 -233 2
-40 21 8 21 54 0 62 18 40 22 -27 2 -29 7 -52 11 -51 5 0 15 -8 23 -18 12 -16
13 -15 14 17 0 44 14 70 24 45 3 -9 6 -31 6 -48 1 -37 21 -69 41 -65 10 2 16
-14 20 -62 4 -50 6 -55 7 -22 3 71 41 41 43 -35 1 -23 3 -29 6 -15 5 24 23 21
23 -5 0 -9 8 -22 18 -29 35 -26 8 -271 -28 -249 -5 3 -10 12 -10 19 0 7 -11
23 -25 36 -22 21 -23 25 -10 44 8 11 15 30 15 41 0 15 -4 12 -17 -13 -10 -20
-21 -31 -29 -28 -22 8 -17 -4 22 -51 35 -43 35 -44 11 -39 -33 6 -45 13 -171
96 -100 67 -127 92 -113 107 3 3 40 -9 82 -27 43 -17 78 -30 80 -28 11 13 34
69 39 98 5 30 3 27 -19 -19 -14 -30 -27 -56 -29 -58 -5 -5 -56 19 -56 27 0 3
11 28 24 56 13 27 21 53 18 59 -3 5 -16 -14 -28 -42 -13 -28 -27 -54 -33 -57
-13 -9 -63 15 -58 28 23 62 38 118 34 129 -2 6 -14 -18 -26 -55 -12 -37 -26
-70 -31 -73 -6 -4 -70 13 -70 18 0 1 9 26 20 56 28 73 16 78 -15 6 l-26 -57
-37 7 c-20 4 -38 8 -40 10 -2 1 6 18 17 36 12 19 21 43 21 54 0 13 -10 2 -28
-30 -29 -53 -44 -61 -98 -50 l-34 6 26 34 c14 19 24 40 22 47 -2 6 -18 -8 -34
-33 -26 -39 -34 -44 -72 -47 -47 -3 -51 4 -25 46 14 22 9 20 -24 -12 -35 -33
-45 -37 -72 -31 -17 4 -31 8 -31 10 0 1 27 59 60 128 57 117 73 166 50 152 -5
-3 -10 -14 -10 -24 0 -19 -90 -204 -113 -233 -8 -10 -19 -18 -26 -18 -19 0
-13 -19 18 -58 84 -105 118 -326 85 -542 -4 -31 -4 -33 7 -15 7 11 14 72 17
148 7 179 -26 332 -86 400 -8 9 -13 20 -10 22 11 11 89 -28 110 -54 13 -16 19
-19 15 -8 -11 29 32 12 71 -30 27 -27 32 -30 27 -13 -6 19 -4 21 17 15 12 -4
37 -15 53 -24 17 -8 37 -16 45 -17 8 -1 31 -8 50 -16 34 -15 33 -15 -57 -13
-63 1 -93 -2 -93 -9 0 -18 -40 -47 -52 -40 -8 5 -9 -12 -5 -62 4 -38 7 -89 7
-114 l1 -45 13 30 c12 25 15 27 21 13 13 -33 25 -18 19 22 -10 59 26 134 39
83 2 -10 3 -8 2 5 -4 36 31 62 70 52 6 -2 22 -2 37 -1 17 1 37 -8 50 -21 13
-13 27 -22 32 -20 17 6 69 -53 92 -104 12 -29 27 -54 33 -55 6 -2 13 -24 17
-48 6 -35 4 -43 -7 -39 -8 3 -17 20 -20 39 l-6 34 -2 -33 c-1 -30 -3 -33 -23
-26 -13 3 -30 12 -38 19 -8 7 -20 11 -26 8 -7 -2 -14 7 -18 21 -3 14 -20 33
-36 41 -27 14 -32 14 -56 -2 l-27 -17 30 -8 c17 -4 34 -18 41 -32 9 -20 7 -27
-12 -45 -12 -12 -30 -21 -39 -21 -24 0 -21 -17 4 -23 18 -5 20 -11 15 -39 l-6
-33 13 34 c7 19 23 38 34 42 12 4 26 16 32 26 13 23 28 9 34 -32 l4 -30 2 34
c1 31 3 33 29 27 15 -4 32 -13 38 -21 5 -7 19 -13 30 -12 17 2 19 -5 20 -58 1
-47 5 -61 18 -63 21 -4 20 -27 -4 -79 -14 -33 -25 -43 -42 -43 -43 0 -50 12
-33 59 8 23 16 70 19 104 2 34 2 51 -1 37 -6 -37 -42 -153 -50 -166 -8 -12
-54 -22 -62 -14 -3 3 1 26 8 52 20 71 8 79 -17 11 -23 -62 -36 -73 -89 -73
-27 0 -28 6 -7 55 8 20 13 42 11 48 -4 11 -23 -25 -48 -90 -5 -13 -16 -23 -26
-24 -10 0 -28 -2 -40 -5 -27 -5 -28 4 -8 53 18 42 20 62 5 47 -6 -6 -19 -32
-29 -58 -16 -44 -22 -50 -69 -65 -29 -10 -52 -16 -52 -14 0 2 7 18 16 34 24
48 11 43 -28 -10 -26 -35 -50 -54 -83 -66 -25 -10 -49 -15 -52 -11 -4 4 9 39
29 79 35 69 79 188 78 211 -1 6 -16 -31 -35 -82 -53 -148 -88 -203 -232 -370
-35 -40 -60 -78 -57 -84 5 -7 12 -4 21 8 15 21 17 23 83 104 65 79 64 79 138
114 76 37 141 60 148 53 3 -3 -9 -47 -26 -99 -40 -115 -80 -257 -80 -281 0
-13 5 -16 24 -11 30 7 44 -13 22 -34 -14 -14 -20 -14 -37 -4 -18 11 -21 9 -34
-20 -8 -18 -20 -58 -26 -90 -14 -64 -22 -68 -130 -68 l-58 0 -7 58 c-8 69 -14
78 -60 86 -38 8 -60 42 -48 78 3 10 1 25 -5 32 -7 8 -14 45 -17 82 -6 77 -21
123 -44 141 -8 6 -37 15 -65 18 -27 4 -57 11 -65 15 -15 9 -51 147 -53 210 -2
28 2 36 18 38 19 3 69 97 102 191 15 43 15 41 5 41 -4 0 -21 -35 -37 -77 -47
-125 -56 -139 -96 -135 -43 5 -45 7 -31 35 32 62 84 231 75 241 -3 3 -25 -51
-49 -120 -24 -68 -46 -129 -50 -135 -5 -8 -80 -4 -91 5 -5 5 55 165 71 189 12
18 22 55 25 95 5 58 8 67 25 64 34 -6 66 -21 66 -31 0 -6 7 -8 15 -5 8 4 15 2
16 -2 4 -49 19 -81 44 -98 22 -14 25 -14 47 4 19 16 20 19 6 20 -13 0 -18 9
-19 28 -1 16 -3 20 -6 10 -7 -26 -22 -22 -34 8 -7 21 -6 31 7 45 12 13 21 16
29 9 6 -5 15 -7 19 -3 4 4 11 1 16 -7 8 -13 10 -13 10 1 0 9 -9 24 -20 34 -11
10 -20 28 -21 39 0 18 -1 19 -7 3 -4 -10 -20 -24 -35 -32 -22 -11 -29 -12 -39
-1 -7 7 -20 11 -29 9 -9 -3 -32 2 -52 11 -31 13 -37 20 -37 46 0 49 47 90 103
90 54 0 77 -8 77 -25 0 -8 8 -11 18 -8 26 6 70 -48 77 -95 3 -20 9 -50 13 -66
l7 -29 24 48 c27 54 24 120 -7 163 -9 14 -25 36 -34 51 -10 14 -19 24 -21 21
-7 -13 -85 34 -95 58 -10 22 -11 23 -8 5 4 -21 0 -23 -37 -23 -23 -1 -59 -7
-79 -14 -21 -7 -40 -11 -43 -7 -4 3 -12 6 -20 6 -17 0 -115 122 -115 144 0 12
-2 13 -9 3 -6 -10 -23 -3 -70 28 -56 37 -70 42 -124 43 -62 0 -110 -16 -149
-51 -10 -8 -18 -11 -19 -6 0 5 -11 -13 -24 -41 -25 -52 -32 -128 -15 -155 8
-12 10 -10 10 8 0 15 7 26 20 29 11 3 20 14 20 24 0 37 101 78 113 47 4 -10 6
-10 6 0 2 24 131 5 131 -20 0 -5 5 -6 11 -3 20 13 81 -39 106 -90 13 -27 22
-42 19 -33 -11 38 15 26 44 -18 49 -77 34 -138 -20 -84 -12 12 -25 18 -29 15
-5 -2 -23 0 -40 6 -36 13 -61 53 -62 101 -1 18 -5 44 -10 58 -6 20 -8 15 -6
-22 2 -50 -2 -55 -32 -37 -25 16 -71 3 -71 -19 0 -15 7 -17 35 -14 32 4 36 1
49 -28 18 -44 7 -82 -29 -99 -21 -10 -33 -11 -46 -3 -27 17 -36 -6 -11 -30 19
-19 102 -33 102 -17 0 20 47 78 63 79 33 0 57 -20 58 -48 0 -26 1 -26 9 -4 11
25 20 27 42 10 21 -17 27 -59 16 -111 -5 -23 -12 -71 -17 -107 -4 -36 -18 -87
-29 -113 l-21 -47 -50 0 c-50 0 -60 6 -42 26 13 12 91 247 91 270 -1 29 -14 2
-45 -96 -15 -47 -39 -110 -52 -142 l-25 -56 -50 -4 c-27 -1 -51 -2 -53 0 -2 2
9 31 25 65 30 66 73 208 65 215 -6 6 -25 -43 -32 -83 -3 -16 -23 -68 -44 -115
l-38 -85 -71 -11 c-51 -8 -70 -8 -66 0 40 93 95 239 100 266 l7 35 -16 -30
c-9 -16 -30 -65 -45 -107 -16 -42 -40 -99 -54 -127 -24 -46 -29 -50 -77 -60
-29 -6 -54 -10 -56 -7 -2 2 10 29 27 59 33 60 35 65 82 237 25 93 31 138 33
235 l3 120 -7 -115 c-12 -187 -90 -433 -168 -529 -16 -20 -153 -77 -153 -63 0
2 13 28 29 56 33 58 55 120 49 138 -3 7 -13 -10 -23 -37 -35 -91 -95 -181
-132 -196 -18 -7 -31 -14 -29 -17 3 -2 44 12 93 31 48 19 114 41 146 49 l57
15 0 -27 c0 -25 -11 -68 -51 -200 -9 -29 -21 -40 -72 -65 -34 -16 -62 -34 -63
-40 -1 -28 -17 -131 -20 -137 -3 -4 -20 2 -39 13 -23 14 -62 23 -113 28 -52 4
-84 12 -95 23 -11 11 -44 18 -102 23 -52 5 -85 12 -85 19 0 8 -2 8 -8 0 -4 -7
-46 -13 -102 -15 l-95 -4 -3 28 c-3 25 -1 27 32 27 20 0 36 5 36 10 0 6 -16 8
-41 4 -39 -7 -41 -6 -37 17 3 22 8 24 53 24 47 0 50 -2 50 -25 1 -23 4 -25 42
-22 31 3 44 -1 53 -15 9 -16 10 -15 4 7 -11 40 -23 70 -29 70 -2 0 0 -12 5
-26 10 -24 9 -25 -22 -22 -36 3 -55 38 -21 38 14 0 12 3 -7 13 -14 7 -26 20
-28 30 -3 13 4 17 27 17 17 0 31 4 31 8 0 5 -13 7 -30 4 -24 -3 -31 0 -39 19
-8 22 -6 24 33 30 35 6 58 0 149 -38 80 -34 111 -52 122 -72 10 -19 14 -21 15
-8 0 14 12 10 65 -24 36 -23 69 -38 72 -35 6 6 -23 69 -67 143 -21 35 -21 35
40 65 34 17 34 17 5 11 -16 -3 -42 -12 -57 -20 -26 -13 -33 -10 -29 11 1 5 -2
12 -6 15 -5 3 -23 29 -41 56 -42 65 -43 66 -107 163 -30 46 -55 86 -55 88 0 3
-7 12 -15 20 -8 9 -15 11 -15 5 0 -5 5 -13 10 -16 6 -3 10 -11 10 -17 0 -12
-30 25 -104 129 -26 37 -72 101 -102 141 -29 41 -50 80 -47 88 3 9 -1 14 -13
14 -9 0 -14 3 -11 7 4 3 -8 16 -26 29 -28 19 -34 29 -35 64 -1 22 -8 53 -16
68 -21 39 -74 94 -85 88 -5 -3 -11 0 -14 8 -3 7 -15 16 -26 19 l-21 5 21 -29
c11 -16 17 -29 12 -29 -4 0 -23 22 -42 48 -19 26 -45 56 -58 66 -17 12 -12 2
16 -36 23 -29 41 -58 41 -65 0 -6 11 -20 24 -30 14 -10 49 -48 79 -84 47 -58
58 -81 85 -175 18 -60 32 -115 32 -123 0 -8 3 -12 6 -8 4 3 -4 47 -16 97 -12
50 -21 93 -18 95 5 6 75 -87 90 -121 7 -14 26 -40 42 -58 31 -33 44 -55 66
-114 10 -25 15 -30 22 -20 6 8 11 9 14 3 2 -6 27 -42 54 -79 28 -38 50 -72 50
-76 0 -4 13 -22 29 -39 15 -16 34 -44 41 -61 7 -17 26 -45 41 -61 16 -17 29
-37 29 -45 0 -8 9 -22 20 -31 11 -10 20 -22 20 -27 0 -6 -5 -5 -12 2 -19 19
-24 15 -26 -20 -3 -42 -17 -56 -39 -42 -13 8 -17 22 -14 60 3 55 -5 57 -14 4
-8 -44 -8 -44 -42 -33 -30 11 -30 11 -17 102 5 40 4 52 -4 47 -7 -4 -12 -20
-12 -36 0 -41 -17 -80 -35 -80 -9 0 -29 7 -46 15 -23 12 -27 19 -21 33 15 28
24 120 12 127 -6 4 -10 -6 -10 -26 0 -17 -5 -50 -12 -71 -12 -39 -13 -40 -51
-35 -21 3 -41 7 -43 10 -3 3 2 30 11 61 9 30 15 72 13 93 l-4 38 -8 -50 c-4
-27 -16 -69 -26 -91 l-18 -42 -48 5 c-27 3 -50 7 -52 8 -1 1 9 26 22 56 14 30
27 81 30 114 l6 60 -15 -55 c-9 -30 -28 -80 -43 -110 l-27 -55 -45 3 c-82 6
-81 5 -61 65 35 101 32 136 -3 42 l-33 -90 -57 -3 c-31 -2 -56 -1 -56 1 0 3 7
21 15 40 22 53 17 68 -7 22 -30 -59 -48 -75 -80 -75 -16 0 -38 -5 -50 -11 -11
-6 -21 -9 -24 -7 -2 3 10 36 26 75 57 135 74 230 73 412 -1 90 -5 167 -10 172
-5 5 -7 -61 -5 -154 4 -157 3 -167 -27 -281 -18 -65 -46 -148 -64 -185 l-32
-66 23 -49 c27 -56 40 -57 16 -1 -8 21 -12 41 -7 45 17 16 119 30 216 29 112
-1 140 -7 146 -29 9 -39 13 -155 7 -223 -9 -86 1 -80 -141 -93 l-70 -6 -33 55
c-19 31 -35 63 -36 72 -1 10 -11 22 -21 28 -15 8 -13 -1 12 -44 16 -30 35 -68
40 -85 l11 -31 -76 -11 c-43 -6 -98 -15 -123 -22 l-47 -11 3 -122 c3 -115 4
-122 24 -125 15 -2 21 -11 21 -29 0 -33 20 -103 35 -123 6 -8 16 -27 23 -42
10 -25 24 -32 76 -40 12 -2 36 -32 64 -78 24 -41 52 -84 63 -96 10 -11 19 -30
19 -41 0 -13 13 -31 32 -44 36 -26 33 -29 -65 -49 l-57 -11 0 -65 c0 -58 2
-65 23 -73 49 -19 265 -37 470 -40 184 -2 219 0 257 15 25 10 49 24 53 31 4 7
15 13 22 13 9 0 15 9 15 21 0 18 4 21 28 15 15 -3 56 -13 92 -21 92 -21 314
-32 344 -16 18 10 42 9 132 -8 118 -23 160 -26 168 -12 3 4 27 6 54 3 69 -6
96 10 89 54 -3 19 -2 34 3 34 11 0 23 -37 16 -49 -10 -16 24 -41 55 -41 19 0
28 4 24 11 -10 16 26 38 62 39 25 0 31 4 27 15 -8 19 0 19 149 -4 234 -37 392
-53 421 -41 19 7 47 7 89 0 68 -11 226 -13 251 -4 9 3 16 17 16 30 0 30 16 31
136 4 111 -24 110 -24 117 1 4 16 10 20 24 14 122 -52 263 -65 263 -24 0 12 7
19 20 19 11 0 20 7 20 15 0 18 23 19 52 4 16 -9 24 -7 44 12 13 12 32 38 42
58 21 40 59 58 47 22 -11 -36 3 -23 23 21 11 24 54 77 97 119 l77 76 70 7
c137 13 376 86 488 149 79 44 220 150 220 165 0 16 -20 6 -74 -37 -45 -36
-313 -169 -403 -199 -56 -20 -151 -43 -230 -56 -18 -3 -34 -2 -37 3 -3 4 14
36 37 71 l43 63 99 3 c124 4 247 31 357 78 50 21 183 102 198 121 23 28 5 24
-50 -10 -118 -74 -342 -147 -485 -160 -97 -8 -108 1 -74 62 l26 48 189 16
c104 8 195 18 202 23 23 14 8 150 -19 166 -14 9 54 18 342 44 26 3 51 0 56 -5
7 -7 22 -5 44 5 19 8 56 18 83 21 l48 7 -6 51 c-4 28 -9 54 -12 59 -3 4 -30 8
-60 8 -48 0 -90 15 -114 40 -3 3 -45 41 -95 84 -49 44 -102 91 -117 105 -16
14 -28 21 -28 17 0 -4 54 -61 120 -126 l120 -118 -38 -6 c-45 -7 -265 -23
-422 -31 -63 -3 -129 -8 -145 -11 -27 -5 -34 0 -63 39 -26 36 -32 55 -32 94 0
95 40 183 110 246 48 44 85 64 127 68 34 4 64 -16 154 -98 25 -24 49 -43 53
-43 8 0 -189 192 -303 296 -36 33 -103 97 -150 144 -47 47 -107 105 -133 128
-27 24 -48 48 -48 54 0 6 -3 9 -6 5 -8 -8 -75 54 -69 64 3 4 0 11 -6 15 -8 4
-9 3 -5 -4 17 -27 -11 -8 -67 46 -33 31 -102 98 -153 147 -51 50 -120 115
-153 145 -35 32 -63 66 -66 82 -4 15 -11 30 -16 33 -5 4 -9 15 -9 26 0 12 -10
23 -25 29 -38 14 -157 90 -190 122 -17 15 -36 28 -43 28 -6 0 -17 10 -23 22
-10 18 -8 24 7 35 11 8 13 13 5 13 -9 0 -11 11 -6 40 6 35 3 44 -17 65 -21 21
-63 131 -84 218 -6 27 -36 38 -48 18z m613 -1174 c11 -21 15 -35 8 -31 -7 3 1
-5 17 -18 17 -14 26 -30 22 -36 -4 -7 -3 -12 3 -12 6 0 22 -20 37 -45 14 -25
30 -45 35 -45 5 0 9 -7 9 -15 0 -8 22 -45 48 -82 26 -38 79 -117 116 -178 108
-175 137 -220 198 -307 32 -45 56 -83 55 -84 -1 -1 -152 1 -335 5 l-334 6 32
40 c44 55 66 101 90 186 25 91 27 223 4 300 -16 53 -64 148 -91 180 -10 12
-11 23 -4 42 10 25 23 115 25 164 1 21 2 21 23 -5 12 -15 31 -44 42 -65z
m-456 -9 c15 -5 27 -14 27 -19 0 -6 6 -9 13 -7 20 4 67 -12 67 -22 0 -6 11
-10 24 -10 13 0 29 -7 36 -15 7 -9 19 -14 27 -11 18 7 63 -22 63 -41 0 -10 -6
-12 -22 -7 -22 7 -31 7 -75 3 -10 -1 -25 -11 -33 -22 -16 -19 -17 -18 -48 28
-17 26 -32 50 -34 54 -2 5 -27 25 -55 45 -54 39 -67 54 -35 41 9 -4 29 -12 45
-17z m382 -188 c10 -22 21 -38 24 -35 3 3 14 -16 24 -42 48 -120 26 -365 -41
-471 -21 -33 -24 -21 -7 28 21 60 18 75 -4 18 -21 -52 -58 -108 -72 -108 -5 0
-1 17 10 38 23 46 61 180 60 213 0 13 -9 -7 -19 -46 -20 -78 -52 -165 -60
-165 -3 0 -13 12 -23 26 -18 23 -18 27 -3 59 9 18 18 48 21 67 l5 33 -19 -40
c-11 -22 -20 -45 -20 -52 -2 -20 -20 -25 -36 -9 -11 10 -13 21 -6 38 14 38 24
136 12 118 -6 -8 -11 -25 -11 -38 0 -12 -7 -38 -14 -57 -12 -27 -19 -33 -33
-28 -41 14 -43 22 -21 80 17 44 19 59 10 74 -7 10 -12 36 -12 58 0 38 1 39 34
37 45 -4 56 -12 56 -44 0 -20 5 -28 18 -28 9 0 27 -4 40 -8 18 -6 22 -4 22 13
0 13 -5 18 -13 15 -8 -3 -19 2 -26 10 -18 22 4 59 30 51 20 -7 24 2 11 21 -8
13 -82 24 -82 12 0 -14 -50 -8 -56 6 -3 8 -12 12 -19 10 -9 -4 -17 7 -24 33
-15 51 -14 55 12 79 15 15 36 22 67 22 40 1 52 -4 87 -36 29 -27 44 -51 52
-83 27 -105 29 -108 30 -43 1 34 -5 79 -13 100 -34 98 -27 154 9 74z m-1920
-333 c4 -13 3 -73 -2 -133 l-8 -109 -42 -3 c-40 -3 -43 -1 -43 22 0 14 4 47
10 73 5 26 11 63 14 81 4 32 3 33 -13 18 -30 -27 -58 -15 -45 19 5 12 15 16
35 13 22 -4 29 -1 29 12 0 23 9 30 36 30 16 0 25 -7 29 -23z m-1140 -164 c9
-82 12 -89 35 -68 12 11 26 14 41 10 18 -6 21 -4 16 10 -4 9 -7 21 -7 26 0 5
-4 9 -10 9 -5 0 -9 -6 -7 -12 3 -19 -39 -22 -47 -3 -10 26 1 33 47 31 37 -2
42 -5 42 -27 0 -13 3 -26 7 -29 3 -3 8 -14 10 -25 3 -18 -2 -20 -54 -20 -47 1
-57 -2 -54 -15 3 -8 7 -38 11 -66 5 -43 4 -52 -11 -58 -10 -4 -22 -2 -27 3 -5
5 -11 61 -12 124 -2 64 -6 125 -10 136 -7 22 0 41 14 41 5 0 12 -30 16 -67z
m2838 34 c67 -37 117 -104 117 -157 l0 -30 -67 -1 c-38 -1 -84 -3 -104 -4 -36
-4 -37 -3 -43 38 -13 97 -18 166 -12 175 7 11 74 -1 109 -21z m-384 -74 c-4
-32 -7 -139 -8 -238 -1 -99 -5 -205 -9 -235 -6 -47 -10 -55 -30 -58 -43 -6
-51 3 -42 50 5 24 13 75 19 113 30 195 63 401 67 413 8 28 10 9 3 -45z"/>
<path d="M2805 3548 l7 -33 -26 25 -27 25 5 -55 c5 -38 3 -49 -3 -35 -9 19
-10 19 -10 -2 -1 -14 5 -23 14 -23 8 0 15 -4 15 -10 0 -5 -8 -6 -17 -3 -13 5
-15 3 -8 -13 4 -10 11 -41 14 -68 5 -39 11 -50 30 -57 l23 -9 -6 72 c-6 68 -6
71 8 48 9 -14 15 -33 16 -43 0 -10 5 -15 10 -12 12 7 14 65 2 65 -4 0 -16 36
-26 80 -10 44 -20 80 -23 80 -2 0 -1 -15 2 -32z"/>
<path d="M2562 3312 c-6 -29 -19 -68 -27 -88 -13 -33 -17 -35 -46 -29 -17 4
-41 8 -53 9 -13 2 -28 6 -33 9 -6 4 -13 0 -17 -8 -3 -9 -12 -12 -23 -9 -16 5
-15 3 2 -11 l20 -17 -20 4 c-13 3 -19 11 -18 25 4 33 -26 37 -33 5 -4 -15 -12
-31 -18 -35 -7 -5 -6 -7 4 -6 8 1 33 0 55 -1 40 -2 40 -2 10 -11 -16 -4 -40
-6 -54 -2 -18 4 -22 3 -16 -7 6 -10 3 -12 -13 -8 -14 4 -20 2 -15 -5 4 -6 0
-8 -10 -4 -10 3 -17 3 -17 -2 0 -5 -7 -8 -16 -7 -9 0 -19 -5 -21 -11 -3 -7 2
-13 11 -13 8 0 17 -4 20 -9 3 -4 -23 0 -57 9 -83 24 -98 30 -91 41 3 5 -2 6
-10 3 -8 -3 -64 10 -123 29 -131 42 -295 87 -317 87 -33 0 3 -39 47 -51 23 -7
48 -17 55 -23 22 -16 43 -65 68 -158 32 -120 43 -257 34 -413 -8 -114 -17
-167 -61 -339 -19 -75 0 -47 24 35 53 177 60 229 54 418 -4 154 -8 191 -35
294 -17 65 -40 133 -51 152 -10 18 -17 35 -15 38 7 7 107 -24 124 -38 8 -7 20
-10 27 -8 22 8 108 -28 132 -55 14 -17 21 -20 17 -9 -7 21 7 22 65 2 26 -9 52
-27 63 -43 10 -15 15 -20 13 -10 -9 25 1 27 51 11 58 -20 69 -28 92 -72 11
-20 19 -30 20 -23 0 7 -5 23 -11 34 -10 19 -9 20 14 14 51 -12 75 -25 91 -48
13 -18 16 -19 16 -5 0 21 1 21 53 -2 23 -10 56 -24 74 -31 17 -6 39 -21 49
-31 11 -12 20 -16 24 -9 7 12 74 -12 85 -31 4 -5 13 -8 20 -5 17 6 91 -29 98
-46 4 -11 6 -11 6 0 1 17 56 -11 70 -35 6 -11 11 -13 11 -5 1 64 100 -169 116
-273 3 -25 10 -45 13 -45 18 0 32 -85 38 -220 6 -159 -10 -303 -49 -435 -20
-68 -21 -69 -31 -41 -7 21 -6 42 6 80 18 60 41 195 34 202 -2 3 -8 -16 -12
-42 -10 -67 -44 -176 -54 -170 -4 3 -3 -23 4 -57 10 -55 9 -68 -8 -115 -19
-53 -17 -76 5 -54 6 6 20 35 31 64 81 219 89 263 90 488 0 170 -6 237 -31 345
-20 84 -116 304 -139 318 -10 6 -10 12 2 31 40 61 59 148 59 278 1 72 -3 131
-9 137 -7 7 -10 -34 -10 -122 -1 -77 -6 -151 -14 -177 -16 -56 -41 -110 -51
-110 -15 0 -43 79 -33 92 13 17 36 109 28 116 -3 3 -5 1 -5 -5 0 -6 -9 -32
-21 -58 -19 -43 -22 -46 -37 -31 -15 14 -15 20 1 63 19 54 22 87 7 78 -5 -3
-10 -15 -10 -26 0 -11 -7 -33 -15 -49 l-15 -30 -21 21 c-20 20 -21 23 -6 54
20 41 34 114 19 100 -5 -5 -17 -34 -27 -62 -9 -29 -20 -53 -24 -53 -3 0 -18 8
-31 17 -14 9 -26 17 -27 18 -1 0 9 31 22 68 14 37 25 73 25 79 0 23 -17 -7
-40 -69 -12 -35 -24 -63 -27 -63 -2 0 -21 9 -43 20 l-39 20 23 57 c29 71 41
123 29 123 -5 0 -15 -23 -21 -52 -7 -28 -21 -66 -32 -84 -19 -30 -22 -32 -53
-21 -17 6 -33 12 -35 13 -2 1 6 30 18 64 12 34 20 77 18 94 -3 27 -5 25 -16
-22z m28 -182 c0 -5 11 -10 24 -10 33 0 132 -59 184 -109 50 -49 102 -119 102
-138 0 -14 -31 -18 -44 -6 -3 4 -12 8 -19 9 -33 5 -128 52 -184 91 -93 65
-125 97 -117 116 3 9 10 17 15 17 5 0 9 9 9 20 0 11 7 20 15 20 8 0 15 -4 15
-10z"/>
</g>
</svg>
